<svg xmlns="http://www.w3.org/2000/svg" viewBox="0 0 500 500"><g id="freepik--background-simple--inject-10"><path d="M421.89,99.46l-2.21-3.64C401.06,65.13,367.4,46.64,331.9,48.88a93,93,0,0,0-13.58,1.87c-32.27,6.91-60.35,31.31-72,62.56-6.85,18.38-8.76,39.55-21.75,54.14-16.91,19-45.61,19.58-70.84,18.8s-54-.12-70.78,18.94c-10.54,11.94-13.89,28.92-13,44.91,2.25,42.33,31.75,80.18,69.26,99s81.68,20.5,122.74,12.23c57.51-11.6,112.2-43.44,145.08-92.61S448.2,152.53,421.89,99.46Z" style="fill:#ebebeb"></path><circle cx="38.75" cy="212.94" r="16.64" transform="translate(-139.22 89.77) rotate(-45)" style="fill:#ebebeb"></circle><circle cx="438.32" cy="58.05" r="16.64" transform="translate(281.81 471.57) rotate(-76.81)" style="fill:#ebebeb"></circle></g><g id="freepik--Padlock--inject-10"><path d="M75.85,74.66a36.14,36.14,0,0,0-19.73,47.08l22.41,54.7,10-4.11-22.4-54.71a25.23,25.23,0,0,1,46.7-19.12l10.05-4.12A36.12,36.12,0,0,0,75.85,74.66Z" style="fill:#146460"></path><g style="opacity:0.30000000000000004"><path d="M75.85,74.66a36.14,36.14,0,0,0-19.73,47.08l22.41,54.7,10-4.11-22.4-54.71a25.23,25.23,0,0,1,46.7-19.12l10.05-4.12A36.12,36.12,0,0,0,75.85,74.66Z"></path></g><rect x="65.15" y="136.1" width="97.29" height="62.42" rx="5.81" transform="translate(-54.91 55.6) rotate(-22.27)" style="fill:#146460"></rect><g style="opacity:0.5"><path d="M118.23,156.7a8.13,8.13,0,1,0-6.62,11.13l4.6,11.25,4.11-1.68-4.61-11.25A8.1,8.1,0,0,0,118.23,156.7Z"></path></g><path d="M83.16,207.18c-.21.09-4.32-9.48-9.18-21.36s-8.65-21.58-8.44-21.67,4.32,9.48,9.18,21.37S83.36,207.1,83.16,207.18Z" style="fill:#fafafa"></path><path d="M108.76,171.85a2.77,2.77,0,0,1-1.08-.14,10.14,10.14,0,0,1-2.75-1.19,11.38,11.38,0,0,1-2.73-17.36,9.51,9.51,0,0,1,2.25-2c.6-.37,1-.51,1-.47a25.93,25.93,0,0,0-2.8,2.79,11.28,11.28,0,0,0,2.6,16.53A26.35,26.35,0,0,0,108.76,171.85Z" style="fill:#fafafa"></path><path d="M44.94,181.71l.49-1.42.93,1.18a6.21,6.21,0,0,0,2.88,2l1.42.49-1.18.93a6.34,6.34,0,0,0-2,2.88L47,189.22,46,188.05a6.31,6.31,0,0,0-2.89-2l-1.41-.49,1.17-.93A6.34,6.34,0,0,0,44.94,181.71Z" style="fill:#146460"></path><path d="M92.4,125.92l.28-.82.54.68A3.69,3.69,0,0,0,94.9,127l.82.28-.68.55a3.63,3.63,0,0,0-1.19,1.67l-.28.82L93,129.6a3.54,3.54,0,0,0-1.67-1.18l-.83-.29.69-.54A3.68,3.68,0,0,0,92.4,125.92Z" style="fill:#146460"></path><path d="M35.33,132.87l.82-2.39,1.57,2a10.48,10.48,0,0,0,4.84,3.42l2.38.82-2,1.57a10.57,10.57,0,0,0-3.43,4.84l-.82,2.38-1.56-2a10.5,10.5,0,0,0-4.84-3.43l-2.38-.82,2-1.56A10.58,10.58,0,0,0,35.33,132.87Z" style="fill:#146460"></path></g><g id="freepik--Device--inject-10"><path d="M311.06,479.9l-147.61-.09a32.16,32.16,0,0,1-32.14-32.16l.07-370.07a32.16,32.16,0,0,1,32.18-32.15l147.61.08a32.16,32.16,0,0,1,32.14,32.16l-.07,370.08A32.16,32.16,0,0,1,311.06,479.9Z" style="fill:#263238"></path><path d="M311,58.6H282.4a7.1,7.1,0,0,0-6.95,7.26V71a7.11,7.11,0,0,1-6.95,7.26l-55.78,0a7.12,7.12,0,0,1-7-7.27V65.81a7.11,7.11,0,0,0-6.95-7.27H163.7A22.53,22.53,0,0,0,141.16,81l-.07,361.22a22.52,22.52,0,0,0,22.51,22.52l147.32.09a22.51,22.51,0,0,0,22.53-22.52l.07-361.21A22.52,22.52,0,0,0,311,58.6Z" style="fill:#fff"></path><path d="M223.63,437.25a2.83,2.83,0,1,1-2.86-2.8A2.84,2.84,0,0,1,223.63,437.25Z" style="fill:#263238"></path><path d="M239.47,437.12a2.83,2.83,0,1,1-2.85-2.8A2.83,2.83,0,0,1,239.47,437.12Z" style="fill:#263238"></path><path d="M255.32,437a2.83,2.83,0,1,1-2.85-2.8A2.83,2.83,0,0,1,255.32,437Z" style="fill:#263238"></path><path d="M311.88,95.08c0,.08-3.73.18-8.32.22s-8.31,0-8.31-.09S299,95,303.56,95,311.87,95,311.88,95.08Z" style="fill:#263238"></path><path d="M311.91,99.33c0,.09-3.72.19-8.31.23s-8.32,0-8.32-.09,3.72-.19,8.32-.23S311.91,99.24,311.91,99.33Z" style="fill:#263238"></path><path d="M312,103.58c0,.09-3.73.19-8.32.23s-8.31,0-8.31-.09,3.72-.18,8.31-.22S311.94,103.5,312,103.58Z" style="fill:#263238"></path><path d="M160.65,108.44l.34,0,1,0,3.56-.08-.09.09c0-.78,0-1.64,0-2.57a14.72,14.72,0,0,1,0-1.48,1.33,1.33,0,0,1,1.17-1.08c.57,0,1.08,0,1.7,0a1.35,1.35,0,0,1,1.15,1.35c0,1.2,0,2.46,0,3.76l-.15-.15,4.48,0-.15.15c0-1.8,0-3.67,0-5.58,0-.47,0-1,0-1.42a1.17,1.17,0,0,0-.18-.58,4.13,4.13,0,0,0-.46-.49c-.66-.65-1.31-1.3-2-1.93l-1.89-1.86c-.3-.31-.61-.61-.91-.91s-.56-.62-.94-.69a1.21,1.21,0,0,0-1,.2c-.27.23-.56.55-.83.82l-1.61,1.62c-1,1-2.06,2-2.83,2.92a3.21,3.21,0,0,0-.22,1.68c0,.56,0,1.08,0,1.58,0,1,0,1.82,0,2.54s0,1.2,0,1.63,0,.58,0,.58,0-.18,0-.54,0-1,0-1.6,0-1.58-.05-2.56c0-.51,0-1,0-1.61,0-.29,0-.58,0-.88a1.83,1.83,0,0,1,.25-.93c.83-1,1.82-1.91,2.84-3l1.59-1.63c.29-.28.53-.57.86-.86a1.51,1.51,0,0,1,1.29-.25,2.38,2.38,0,0,1,1.06.76l.92.9,1.9,1.86,2,1.93a3.76,3.76,0,0,1,.5.54,1.5,1.5,0,0,1,.23.74c0,.48,0,1,0,1.43,0,1.91,0,3.78,0,5.58v.15h-.16l-4.48,0h-.14v-.15c0-1.3,0-2.55,0-3.75a1.11,1.11,0,0,0-.92-1.11c-.52,0-1.13,0-1.63,0a1.11,1.11,0,0,0-1,.88c0,.46,0,1,0,1.43,0,.93,0,1.79,0,2.58v.09h-.09l-3.61,0H161A1.64,1.64,0,0,1,160.65,108.44Z" style="fill:#263238"></path><path d="M198.47,194.2c0,3.47-2.6,5.63-6.76,5.63h-3.13v4.28H185V188.56h6.73C195.87,188.56,198.47,190.72,198.47,194.2Zm-3.65,0c0-1.71-1.11-2.71-3.31-2.71h-2.93v5.4h2.93C193.71,196.89,194.82,195.89,194.82,194.2Z" style="fill:#263238"></path><path d="M211.24,197.29v6.82H208v-1.49a3.93,3.93,0,0,1-3.64,1.67c-2.8,0-4.47-1.55-4.47-3.62s1.49-3.58,5.13-3.58h2.76c0-1.49-.89-2.35-2.76-2.35a5.73,5.73,0,0,0-3.44,1.11l-1.25-2.42a9.18,9.18,0,0,1,5.16-1.45C209.13,192,211.24,193.67,211.24,197.29Zm-3.46,3.05v-1.22H205.4c-1.62,0-2.13.59-2.13,1.39S204,202,205.22,202A2.55,2.55,0,0,0,207.78,200.34Z" style="fill:#263238"></path><path d="M213.22,203l1.16-2.49a8.12,8.12,0,0,0,4.15,1.16c1.6,0,2.2-.42,2.2-1.09,0-2-7.22,0-7.22-4.73,0-2.27,2-3.87,5.53-3.87a9.76,9.76,0,0,1,4.6,1.05l-1.15,2.46a7,7,0,0,0-3.45-.89c-1.55,0-2.22.49-2.22,1.12,0,2,7.22.06,7.22,4.77,0,2.22-2.07,3.8-5.64,3.8A10.21,10.21,0,0,1,213.22,203Z" style="fill:#263238"></path><path d="M225,203l1.15-2.49a8.19,8.19,0,0,0,4.16,1.16c1.6,0,2.2-.42,2.2-1.09,0-2-7.22,0-7.22-4.73,0-2.27,2-3.87,5.53-3.87a9.79,9.79,0,0,1,4.6,1.05l-1.16,2.46a6.9,6.9,0,0,0-3.44-.89c-1.56,0-2.22.49-2.22,1.12,0,2,7.22.06,7.22,4.77,0,2.22-2.07,3.8-5.64,3.8A10.18,10.18,0,0,1,225,203Z" style="fill:#263238"></path><path d="M256.94,192.16l-4.33,12h-3.33l-2.69-7.42-2.78,7.42h-3.33l-4.31-12h3.27l2.82,8.09,2.93-8.09h2.93l2.85,8.09,2.91-8.09Z" style="fill:#263238"></path><path d="M257.35,198.14c0-3.6,2.77-6.16,6.57-6.16s6.56,2.56,6.56,6.16-2.76,6.15-6.56,6.15S257.35,201.74,257.35,198.14Zm9.62,0a3.06,3.06,0,1,0-3.05,3.31A3,3,0,0,0,267,198.14Z" style="fill:#263238"></path><path d="M280.21,192v3.2c-.29,0-.51,0-.78,0-1.91,0-3.18,1-3.18,3.33v5.64h-3.46v-12h3.31v1.58A4.8,4.8,0,0,1,280.21,192Z" style="fill:#263238"></path><path d="M294.34,187.63v16.48H291v-1.37a4.61,4.61,0,0,1-3.73,1.55,6.16,6.16,0,0,1,0-12.31,4.57,4.57,0,0,1,3.57,1.45v-5.8Zm-3.4,10.51a3.06,3.06,0,1,0-3,3.31A3,3,0,0,0,290.94,198.14Z" style="fill:#263238"></path><path d="M321,217c0,.14-37,.26-82.69.26s-82.71-.12-82.71-.26,37-.26,82.71-.26S321,216.83,321,217Z" style="fill:#e0e0e0"></path><path d="M317.15,369.23c0,.15-37,.26-82.7.26s-82.7-.11-82.7-.26,37-.26,82.7-.26S317.15,369.09,317.15,369.23Z" style="fill:#e0e0e0"></path><path d="M279.74,380.67c0,.14-20.57.26-45.94.26s-45.94-.12-45.94-.26,20.56-.26,45.94-.26S279.74,380.52,279.74,380.67Z" style="fill:#e0e0e0"></path><path d="M170.5,261.3l3.13,1.69-1.41,2.36-3.16-1.87.06,3.48h-2.7l0-3.51-3.17,1.9L161.9,263,165,261.3l-3.14-1.73,1.38-2.35,3.17,1.89,0-3.5h2.7l-.06,3.5,3.16-1.89,1.41,2.35Z" style="fill:#146460"></path><path d="M206.42,261.3l3.13,1.69-1.41,2.36L205,263.48,205,267h-2.71l0-3.51-3.16,1.9L197.82,263,201,261.3l-3.13-1.73,1.38-2.35,3.16,1.89,0-3.5H205l-.06,3.5,3.16-1.89,1.41,2.35Z" style="fill:#146460"></path><path d="M241.38,261.3l3.13,1.69-1.41,2.36-3.16-1.87L240,267h-2.7l0-3.51-3.17,1.9L232.78,263l3.14-1.69-3.14-1.73,1.38-2.35,3.17,1.89,0-3.5H240l-.06,3.5,3.16-1.89,1.41,2.35Z" style="fill:#146460"></path><path d="M275.25,261.3l3.13,1.69L277,265.35l-3.16-1.87.06,3.48h-2.7l0-3.51-3.16,1.9L266.65,263l3.14-1.69-3.14-1.73,1.38-2.35,3.16,1.89,0-3.5h2.7l-.06,3.5,3.16-1.89,1.41,2.35Z" style="fill:#146460"></path><path d="M308.85,261.3,312,263l-1.41,2.36-3.16-1.87.05,3.48h-2.7l0-3.51-3.16,1.9L300.26,263l3.13-1.69-3.13-1.73,1.38-2.35,3.16,1.89,0-3.5h2.7l-.05,3.5,3.16-1.89,1.41,2.35Z" style="fill:#146460"></path><path d="M176.07,283.08H160.92a7.08,7.08,0,0,1-7.07-7.07v-26.9a7.07,7.07,0,0,1,7.07-7.06h15.15a7.07,7.07,0,0,1,7.07,7.06V276A7.08,7.08,0,0,1,176.07,283.08Zm-15.15-40.53a6.57,6.57,0,0,0-6.57,6.56V276a6.58,6.58,0,0,0,6.57,6.57h15.15a6.57,6.57,0,0,0,6.57-6.57v-26.9a6.57,6.57,0,0,0-6.57-6.56Z" style="fill:#263238"></path><path d="M211.26,283.08H196.11A7.08,7.08,0,0,1,189,276v-26.9a7.07,7.07,0,0,1,7.07-7.06h15.15a7.07,7.07,0,0,1,7.07,7.06V276A7.08,7.08,0,0,1,211.26,283.08Zm-15.15-40.53a6.57,6.57,0,0,0-6.57,6.56V276a6.58,6.58,0,0,0,6.57,6.57h15.15a6.57,6.57,0,0,0,6.57-6.57v-26.9a6.57,6.57,0,0,0-6.57-6.56Z" style="fill:#263238"></path><path d="M245.49,283.08H230.33a7.08,7.08,0,0,1-7.07-7.07v-26.9a7.07,7.07,0,0,1,7.07-7.06h15.16a7.07,7.07,0,0,1,7.06,7.06V276A7.07,7.07,0,0,1,245.49,283.08Zm-15.16-40.53a6.57,6.57,0,0,0-6.57,6.56V276a6.58,6.58,0,0,0,6.57,6.57h15.16a6.57,6.57,0,0,0,6.56-6.57v-26.9a6.56,6.56,0,0,0-6.56-6.56Z" style="fill:#263238"></path><path d="M280.1,283.08H264.94a7.08,7.08,0,0,1-7.07-7.07v-26.9a7.07,7.07,0,0,1,7.07-7.06H280.1a7.07,7.07,0,0,1,7.06,7.06V276A7.07,7.07,0,0,1,280.1,283.08Zm-15.16-40.53a6.57,6.57,0,0,0-6.57,6.56V276a6.58,6.58,0,0,0,6.57,6.57H280.1a6.57,6.57,0,0,0,6.56-6.57v-26.9a6.56,6.56,0,0,0-6.56-6.56Z" style="fill:#263238"></path><path d="M313.7,283.08H298.55a7.08,7.08,0,0,1-7.07-7.07v-26.9a7.07,7.07,0,0,1,7.07-7.06H313.7a7.07,7.07,0,0,1,7.07,7.06V276A7.08,7.08,0,0,1,313.7,283.08Zm-15.15-40.53a6.57,6.57,0,0,0-6.57,6.56V276a6.57,6.57,0,0,0,6.57,6.57H313.7a6.58,6.58,0,0,0,6.57-6.57v-26.9a6.57,6.57,0,0,0-6.57-6.56Z" style="fill:#263238"></path><rect x="154.09" y="315.56" width="169.79" height="29.74" rx="11.29" style="fill:#146460"></rect><path d="M217.55,324.45h4.57c3.29,0,5.55,2,5.55,5s-2.26,5-5.55,5h-4.57ZM222,332.6a3.12,3.12,0,1,0,0-6.24h-2.13v6.24Z" style="fill:#fff"></path><path d="M228.69,330.65a4.26,4.26,0,1,1,4.26,4A4,4,0,0,1,228.69,330.65Zm6.23,0a2,2,0,1,0-4,0,2,2,0,1,0,4,0Z" style="fill:#fff"></path><path d="M246.59,330.09v4.42h-2.24v-4.08c0-1.25-.58-1.82-1.57-1.82s-1.85.66-1.85,2.08v3.82h-2.24v-7.73h2.14v.91a3.39,3.39,0,0,1,2.56-1C245.21,326.67,246.59,327.73,246.59,330.09Z" style="fill:#fff"></path><path d="M256.24,331.28h-5.85a2.07,2.07,0,0,0,2.21,1.55,2.59,2.59,0,0,0,1.94-.75l1.2,1.3a4.05,4.05,0,0,1-3.19,1.25c-2.68,0-4.42-1.68-4.42-4a3.93,3.93,0,0,1,4.13-4,3.82,3.82,0,0,1,4,4C256.28,330.85,256.25,331.09,256.24,331.28ZM250.36,330h3.81a1.93,1.93,0,0,0-3.81,0Z" style="fill:#fff"></path><circle cx="237.31" cy="143.52" r="30.05" style="fill:#146460"></circle><path d="M232,138.05h-.5v-2.8a5.86,5.86,0,0,1,11.72,0v2.28h-.5v-2.28a5.36,5.36,0,0,0-10.72,0Z" style="fill:#fff"></path><path d="M244.76,157.65h-14.9a2.48,2.48,0,0,1-2.47-2.47V140.27a2.48,2.48,0,0,1,2.47-2.47h14.9a2.48,2.48,0,0,1,2.47,2.47v14.91A2.48,2.48,0,0,1,244.76,157.65Zm-14.9-19.35a2,2,0,0,0-2,2v14.91a2,2,0,0,0,2,2h14.9a2,2,0,0,0,2-2V140.27a2,2,0,0,0-2-2Z" style="fill:#fff"></path><path d="M237.38,148.21a2.34,2.34,0,1,1,2.34-2.34A2.34,2.34,0,0,1,237.38,148.21Zm0-4.17a1.84,1.84,0,1,0,1.84,1.83A1.84,1.84,0,0,0,237.38,144Z" style="fill:#fff"></path><rect x="237.06" y="147.86" width="0.5" height="4.22" style="fill:#fff"></rect></g></svg>